<svg width="39" height="40" viewBox="0 0 39 40" fill="none" xmlns="http://www.w3.org/2000/svg">
<path d="M21.82 22H18.18C17.7101 22 17.3036 21.673 17.203 21.214L16.796 19.33C16.2531 19.0921 15.7382 18.7946 15.261 18.443L13.424 19.028C12.976 19.1709 12.489 18.9823 12.254 18.575L10.43 15.424C10.1976 15.0165 10.2777 14.5025 10.623 14.185L12.048 12.885C11.9832 12.2961 11.9832 11.7019 12.048 11.113L10.623 9.816C10.2772 9.49837 10.1971 8.98372 10.43 8.576L12.25 5.423C12.485 5.0157 12.972 4.82714 13.42 4.97L15.257 5.555C15.5011 5.37416 15.7551 5.20722 16.018 5.055C16.2703 4.91269 16.53 4.78385 16.796 4.669L17.204 2.787C17.3041 2.32797 17.7102 2.00049 18.18 2H21.82C22.2898 2.00049 22.6959 2.32797 22.796 2.787L23.208 4.67C23.4888 4.79352 23.7622 4.93308 24.027 5.088C24.2743 5.23078 24.5133 5.38736 24.743 5.557L26.581 4.972C27.0287 4.82967 27.5151 5.01816 27.75 5.425L29.57 8.578C29.8024 8.98548 29.7224 9.49951 29.377 9.817L27.952 11.117C28.0168 11.7059 28.0168 12.3001 27.952 12.889L29.377 14.189C29.7224 14.5065 29.8024 15.0205 29.57 15.428L27.75 18.581C27.5151 18.9878 27.0287 19.1763 26.581 19.034L24.743 18.449C24.5104 18.6203 24.2687 18.7789 24.019 18.924C23.7568 19.0759 23.4864 19.2131 23.209 19.335L22.796 21.214C22.6955 21.6726 22.2895 21.9996 21.82 22ZM19.996 8C17.7869 8 15.996 9.79086 15.996 12C15.996 14.2091 17.7869 16 19.996 16C22.2051 16 23.996 14.2091 23.996 12C23.996 9.79086 22.2051 8 19.996 8Z" fill="#2E3A59"/>
<path d="M5.18555 34.7617C5.18555 34.4297 5.06836 34.1758 4.83398 34C4.59961 33.8203 4.17773 33.6328 3.56836 33.4375C2.95898 33.2383 2.47656 33.043 2.12109 32.8516C1.15234 32.3281 0.667969 31.623 0.667969 30.7363C0.667969 30.2754 0.796875 29.8652 1.05469 29.5059C1.31641 29.1426 1.68945 28.8594 2.17383 28.6562C2.66211 28.4531 3.20898 28.3516 3.81445 28.3516C4.42383 28.3516 4.9668 28.4629 5.44336 28.6855C5.91992 28.9043 6.28906 29.2148 6.55078 29.6172C6.81641 30.0195 6.94922 30.4766 6.94922 30.9883H5.19141C5.19141 30.5977 5.06836 30.2949 4.82227 30.0801C4.57617 29.8613 4.23047 29.752 3.78516 29.752C3.35547 29.752 3.02148 29.8438 2.7832 30.0273C2.54492 30.207 2.42578 30.4453 2.42578 30.7422C2.42578 31.0195 2.56445 31.252 2.8418 31.4395C3.12305 31.627 3.53516 31.8027 4.07812 31.9668C5.07812 32.2676 5.80664 32.6406 6.26367 33.0859C6.7207 33.5312 6.94922 34.0859 6.94922 34.75C6.94922 35.4883 6.66992 36.0684 6.11133 36.4902C5.55273 36.9082 4.80078 37.1172 3.85547 37.1172C3.19922 37.1172 2.60156 36.998 2.0625 36.7598C1.52344 36.5176 1.11133 36.1875 0.826172 35.7695C0.544922 35.3516 0.404297 34.8672 0.404297 34.3164H2.16797C2.16797 35.2578 2.73047 35.7285 3.85547 35.7285C4.27344 35.7285 4.59961 35.6445 4.83398 35.4766C5.06836 35.3047 5.18555 35.0664 5.18555 34.7617ZM10.9512 37.1172C10.0215 37.1172 9.26367 36.832 8.67773 36.2617C8.0957 35.6914 7.80469 34.9316 7.80469 33.9824V33.8184C7.80469 33.1816 7.92773 32.6133 8.17383 32.1133C8.41992 31.6094 8.76758 31.2227 9.2168 30.9531C9.66992 30.6797 10.1855 30.543 10.7637 30.543C11.6309 30.543 12.3125 30.8164 12.8086 31.3633C13.3086 31.9102 13.5586 32.6855 13.5586 33.6895V34.3809H9.52148C9.57617 34.7949 9.74023 35.127 10.0137 35.377C10.291 35.627 10.6406 35.752 11.0625 35.752C11.7148 35.752 12.2246 35.5156 12.5918 35.043L13.4238 35.9746C13.1699 36.334 12.8262 36.6152 12.3926 36.8184C11.959 37.0176 11.4785 37.1172 10.9512 37.1172ZM10.7578 31.9141C10.4219 31.9141 10.1484 32.0273 9.9375 32.2539C9.73047 32.4805 9.59766 32.8047 9.53906 33.2266H11.8945V33.0918C11.8867 32.7168 11.7852 32.4277 11.5898 32.2246C11.3945 32.0176 11.1172 31.9141 10.7578 31.9141ZM16.5527 29.1016V30.6602H17.6367V31.9023H16.5527V35.0664C16.5527 35.3008 16.5977 35.4688 16.6875 35.5703C16.7773 35.6719 16.9492 35.7227 17.2031 35.7227C17.3906 35.7227 17.5566 35.709 17.7012 35.6816V36.9648C17.3691 37.0664 17.0273 37.1172 16.6758 37.1172C15.4883 37.1172 14.8828 36.5176 14.8594 35.3184V31.9023H13.9336V30.6602H14.8594V29.1016H16.5527ZM20.6074 29.1016V30.6602H21.6914V31.9023H20.6074V35.0664C20.6074 35.3008 20.6523 35.4688 20.7422 35.5703C20.832 35.6719 21.0039 35.7227 21.2578 35.7227C21.4453 35.7227 21.6113 35.709 21.7559 35.6816V36.9648C21.4238 37.0664 21.082 37.1172 20.7305 37.1172C19.543 37.1172 18.9375 36.5176 18.9141 35.3184V31.9023H17.9883V30.6602H18.9141V29.1016H20.6074ZM24.4219 37H22.7227V30.6602H24.4219V37ZM22.623 29.0195C22.623 28.7656 22.707 28.5566 22.875 28.3926C23.0469 28.2285 23.2793 28.1465 23.5723 28.1465C23.8613 28.1465 24.0918 28.2285 24.2637 28.3926C24.4355 28.5566 24.5215 28.7656 24.5215 29.0195C24.5215 29.2773 24.4336 29.4883 24.2578 29.6523C24.0859 29.8164 23.8574 29.8984 23.5723 29.8984C23.2871 29.8984 23.0566 29.8164 22.8809 29.6523C22.709 29.4883 22.623 29.2773 22.623 29.0195ZM27.3809 30.6602L27.4336 31.3926C27.8867 30.8262 28.4941 30.543 29.2559 30.543C29.9277 30.543 30.4277 30.7402 30.7559 31.1348C31.084 31.5293 31.252 32.1191 31.2598 32.9043V37H29.5664V32.9453C29.5664 32.5859 29.4883 32.3262 29.332 32.166C29.1758 32.002 28.916 31.9199 28.5527 31.9199C28.0762 31.9199 27.7188 32.123 27.4805 32.5293V37H25.7871V30.6602H27.3809ZM32.3027 33.7832C32.3027 32.8105 32.5332 32.0273 32.9941 31.4336C33.459 30.8398 34.084 30.543 34.8691 30.543C35.5645 30.543 36.1055 30.7812 36.4922 31.2578L36.5625 30.6602H38.0977V36.7891C38.0977 37.3438 37.9707 37.8262 37.7168 38.2363C37.4668 38.6465 37.1133 38.959 36.6562 39.1738C36.1992 39.3887 35.6641 39.4961 35.0508 39.4961C34.5859 39.4961 34.1328 39.4023 33.6914 39.2148C33.25 39.0312 32.916 38.793 32.6895 38.5L33.4395 37.4688C33.8613 37.9414 34.373 38.1777 34.9746 38.1777C35.4238 38.1777 35.7734 38.0566 36.0234 37.8145C36.2734 37.5762 36.3984 37.2363 36.3984 36.7949V36.4551C36.0078 36.8965 35.4941 37.1172 34.8574 37.1172C34.0957 37.1172 33.4785 36.8203 33.0059 36.2266C32.5371 35.6289 32.3027 34.8379 32.3027 33.8535V33.7832ZM33.9961 33.9062C33.9961 34.4805 34.1113 34.9316 34.3418 35.2598C34.5723 35.584 34.8887 35.7461 35.291 35.7461C35.8066 35.7461 36.1758 35.5527 36.3984 35.166V32.5C36.1719 32.1133 35.8066 31.9199 35.3027 31.9199C34.8965 31.9199 34.5762 32.0859 34.3418 32.418C34.1113 32.75 33.9961 33.2461 33.9961 33.9062Z" fill="black"/>
</svg>
