<svg width="26" height="40" viewBox="0 0 26 40" fill="none" xmlns="http://www.w3.org/2000/svg">
<path d="M13 22C7.47967 21.994 3.00606 17.5204 3 12V11.8C3.10993 6.30455 7.63459 1.92797 13.1307 2.0009C18.6268 2.07382 23.0337 6.5689 22.9978 12.0654C22.9619 17.5618 18.4966 21.9989 13 22ZM8.41 11.59L7 13L11 17L19 9.00002L17.59 7.58002L11 14.17L8.41 11.59Z" fill="#2E3A59"/>
<path d="M7.18359 29.8926H4.57031V37H2.8125V29.8926H0.234375V28.4688H7.18359V29.8926ZM10.7695 37C10.6914 36.8477 10.6348 36.6582 10.5996 36.4316C10.1895 36.8887 9.65625 37.1172 9 37.1172C8.37891 37.1172 7.86328 36.9375 7.45312 36.5781C7.04688 36.2188 6.84375 35.7656 6.84375 35.2188C6.84375 34.5469 7.0918 34.0312 7.58789 33.6719C8.08789 33.3125 8.80859 33.1309 9.75 33.127H10.5293V32.7637C10.5293 32.4707 10.4531 32.2363 10.3008 32.0605C10.1523 31.8848 9.91602 31.7969 9.5918 31.7969C9.30664 31.7969 9.08203 31.8652 8.91797 32.002C8.75781 32.1387 8.67773 32.3262 8.67773 32.5645H6.98438C6.98438 32.1973 7.09766 31.8574 7.32422 31.5449C7.55078 31.2324 7.87109 30.9883 8.28516 30.8125C8.69922 30.6328 9.16406 30.543 9.67969 30.543C10.4609 30.543 11.0801 30.7402 11.5371 31.1348C11.998 31.5254 12.2285 32.0762 12.2285 32.7871V35.5352C12.2324 36.1367 12.3164 36.5918 12.4805 36.9004V37H10.7695ZM9.36914 35.8223C9.61914 35.8223 9.84961 35.7676 10.0605 35.6582C10.2715 35.5449 10.4277 35.3945 10.5293 35.207V34.1172H9.89648C9.04883 34.1172 8.59766 34.4102 8.54297 34.9961L8.53711 35.0957C8.53711 35.3066 8.61133 35.4805 8.75977 35.6172C8.9082 35.7539 9.11133 35.8223 9.36914 35.8223ZM16.9629 35.248C16.9629 35.041 16.8594 34.8789 16.6523 34.7617C16.4492 34.6406 16.1211 34.5332 15.668 34.4395C14.1602 34.123 13.4062 33.4824 13.4062 32.5176C13.4062 31.9551 13.6387 31.4863 14.1035 31.1113C14.5723 30.7324 15.1836 30.543 15.9375 30.543C16.7422 30.543 17.3848 30.7324 17.8652 31.1113C18.3496 31.4902 18.5918 31.9824 18.5918 32.5879H16.8984C16.8984 32.3457 16.8203 32.1465 16.6641 31.9902C16.5078 31.8301 16.2637 31.75 15.9316 31.75C15.6465 31.75 15.4258 31.8145 15.2695 31.9434C15.1133 32.0723 15.0352 32.2363 15.0352 32.4355C15.0352 32.623 15.123 32.7754 15.2988 32.8926C15.4785 33.0059 15.7793 33.1055 16.2012 33.1914C16.623 33.2734 16.9785 33.3672 17.2676 33.4727C18.1621 33.8008 18.6094 34.3691 18.6094 35.1777C18.6094 35.7559 18.3613 36.2246 17.8652 36.584C17.3691 36.9395 16.7285 37.1172 15.9434 37.1172C15.4121 37.1172 14.9395 37.0234 14.5254 36.8359C14.1152 36.6445 13.793 36.3848 13.5586 36.0566C13.3242 35.7246 13.207 35.3672 13.207 34.9844H14.8125C14.8281 35.2852 14.9395 35.5156 15.1465 35.6758C15.3535 35.8359 15.6309 35.916 15.9785 35.916C16.3027 35.916 16.5469 35.8555 16.7109 35.7344C16.8789 35.6094 16.9629 35.4473 16.9629 35.248ZM22.0078 34.457L21.3984 35.0664V37H19.7051V28H21.3984V32.9863L21.7266 32.5645L23.3496 30.6602H25.3828L23.0918 33.3027L25.582 37H23.6367L22.0078 34.457Z" fill="black"/>
</svg>
