<svg width="40" height="40" viewBox="0 0 40 40" fill="none" xmlns="http://www.w3.org/2000/svg">
<path d="M20 36.6667C17.4801 36.6737 14.992 36.1036 12.7266 34.9999C11.8975 34.5967 11.1032 34.1256 10.3516 33.5916L10.1233 33.4249C8.05633 31.8993 6.36642 29.9203 5.1833 27.6399C3.95952 25.2797 3.32481 22.6585 3.33321 19.9999C3.33321 10.7952 10.7952 3.33325 20 3.33325C29.2047 3.33325 36.6667 10.7952 36.6667 19.9999C36.675 22.6572 36.0409 25.2772 34.8183 27.6366C33.6368 29.9156 31.9493 31.894 29.885 33.4199C29.1062 33.9899 28.2798 34.4918 27.415 34.9199L27.2816 34.9866C25.0148 36.0961 22.5237 36.6708 20 36.6667ZM20 28.3332C17.5024 28.3284 15.2127 29.7233 14.0716 31.9449C17.8073 33.7952 22.1926 33.7952 25.9283 31.9449V31.9366C24.7858 29.7174 22.496 28.3256 20 28.3332ZM20 24.9999C23.6102 25.0046 26.939 26.9501 28.715 30.0933L28.74 30.0716L28.7633 30.0516L28.735 30.0766L28.7183 30.0899C32.9333 26.4484 34.4404 20.5705 32.4977 15.3501C30.555 10.1297 25.5718 6.66711 20.0016 6.66711C14.4315 6.66711 9.44828 10.1297 7.50555 15.3501C5.56281 20.5705 7.06997 26.4484 11.285 30.0899C13.0621 26.9483 16.3906 25.0043 20 24.9999ZM20 23.3333C16.3181 23.3333 13.3333 20.3485 13.3333 16.6666C13.3333 12.9847 16.3181 9.99992 20 9.99992C23.6819 9.99992 26.6666 12.9847 26.6666 16.6666C26.6666 18.4347 25.9643 20.1304 24.714 21.3806C23.4638 22.6309 21.7681 23.3333 20 23.3333ZM20 13.3333C18.159 13.3333 16.6666 14.8256 16.6666 16.6666C16.6666 18.5075 18.159 19.9999 20 19.9999C21.8409 19.9999 23.3333 18.5075 23.3333 16.6666C23.3333 14.8256 21.8409 13.3333 20 13.3333Z" fill="#747474"/>
</svg>
