<svg width="49" height="40" viewBox="0 0 49 40" fill="none" xmlns="http://www.w3.org/2000/svg">
<path d="M32 22H18C16.8954 22 16 21.1046 16 20V6C16 4.89543 16.8954 4 18 4H20V2H22V4H28V2H30V4H32C33.1046 4 34 4.89543 34 6V20C34 21.1046 33.1046 22 32 22ZM18 10V20H32V10H18ZM18 6V8H32V6H18ZM30 18H28V16H30V18ZM26 18H24V16H26V18ZM22 18H20V16H22V18ZM30 14H28V12H30V14ZM26 14H24V12H26V14ZM22 14H20V12H22V14Z" fill="#2E3A59"/>
<path d="M7.45898 34.1582C7.39258 35.0762 7.05273 35.7988 6.43945 36.3262C5.83008 36.8535 5.02539 37.1172 4.02539 37.1172C2.93164 37.1172 2.07031 36.75 1.44141 36.0156C0.816406 35.2773 0.503906 34.2656 0.503906 32.9805V32.459C0.503906 31.6387 0.648438 30.916 0.9375 30.291C1.22656 29.666 1.63867 29.1875 2.17383 28.8555C2.71289 28.5195 3.33789 28.3516 4.04883 28.3516C5.0332 28.3516 5.82617 28.6152 6.42773 29.1426C7.0293 29.6699 7.37695 30.4102 7.4707 31.3633H5.71289C5.66992 30.8125 5.51562 30.4141 5.25 30.168C4.98828 29.918 4.58789 29.793 4.04883 29.793C3.46289 29.793 3.02344 30.0039 2.73047 30.4258C2.44141 30.8438 2.29297 31.4941 2.28516 32.377V33.0215C2.28516 33.9434 2.42383 34.6172 2.70117 35.043C2.98242 35.4688 3.42383 35.6816 4.02539 35.6816C4.56836 35.6816 4.97266 35.5586 5.23828 35.3125C5.50781 35.0625 5.66211 34.6777 5.70117 34.1582H7.45898ZM12.1758 37C12.0977 36.8477 12.041 36.6582 12.0059 36.4316C11.5957 36.8887 11.0625 37.1172 10.4062 37.1172C9.78516 37.1172 9.26953 36.9375 8.85938 36.5781C8.45312 36.2188 8.25 35.7656 8.25 35.2188C8.25 34.5469 8.49805 34.0312 8.99414 33.6719C9.49414 33.3125 10.2148 33.1309 11.1562 33.127H11.9355V32.7637C11.9355 32.4707 11.8594 32.2363 11.707 32.0605C11.5586 31.8848 11.3223 31.7969 10.998 31.7969C10.7129 31.7969 10.4883 31.8652 10.3242 32.002C10.1641 32.1387 10.084 32.3262 10.084 32.5645H8.39062C8.39062 32.1973 8.50391 31.8574 8.73047 31.5449C8.95703 31.2324 9.27734 30.9883 9.69141 30.8125C10.1055 30.6328 10.5703 30.543 11.0859 30.543C11.8672 30.543 12.4863 30.7402 12.9434 31.1348C13.4043 31.5254 13.6348 32.0762 13.6348 32.7871V35.5352C13.6387 36.1367 13.7227 36.5918 13.8867 36.9004V37H12.1758ZM10.7754 35.8223C11.0254 35.8223 11.2559 35.7676 11.4668 35.6582C11.6777 35.5449 11.834 35.3945 11.9355 35.207V34.1172H11.3027C10.4551 34.1172 10.0039 34.4102 9.94922 34.9961L9.94336 35.0957C9.94336 35.3066 10.0176 35.4805 10.166 35.6172C10.3145 35.7539 10.5176 35.8223 10.7754 35.8223ZM16.7227 37H15.0234V28H16.7227V37ZM21.041 37.1172C20.1113 37.1172 19.3535 36.832 18.7676 36.2617C18.1855 35.6914 17.8945 34.9316 17.8945 33.9824V33.8184C17.8945 33.1816 18.0176 32.6133 18.2637 32.1133C18.5098 31.6094 18.8574 31.2227 19.3066 30.9531C19.7598 30.6797 20.2754 30.543 20.8535 30.543C21.7207 30.543 22.4023 30.8164 22.8984 31.3633C23.3984 31.9102 23.6484 32.6855 23.6484 33.6895V34.3809H19.6113C19.666 34.7949 19.8301 35.127 20.1035 35.377C20.3809 35.627 20.7305 35.752 21.1523 35.752C21.8047 35.752 22.3145 35.5156 22.6816 35.043L23.5137 35.9746C23.2598 36.334 22.916 36.6152 22.4824 36.8184C22.0488 37.0176 21.5684 37.1172 21.041 37.1172ZM20.8477 31.9141C20.5117 31.9141 20.2383 32.0273 20.0273 32.2539C19.8203 32.4805 19.6875 32.8047 19.6289 33.2266H21.9844V33.0918C21.9766 32.7168 21.875 32.4277 21.6797 32.2246C21.4844 32.0176 21.207 31.9141 20.8477 31.9141ZM26.1738 30.6602L26.2266 31.3926C26.6797 30.8262 27.2871 30.543 28.0488 30.543C28.7207 30.543 29.2207 30.7402 29.5488 31.1348C29.877 31.5293 30.0449 32.1191 30.0527 32.9043V37H28.3594V32.9453C28.3594 32.5859 28.2812 32.3262 28.125 32.166C27.9688 32.002 27.709 31.9199 27.3457 31.9199C26.8691 31.9199 26.5117 32.123 26.2734 32.5293V37H24.5801V30.6602H26.1738ZM31.0781 33.7832C31.0781 32.7949 31.2988 32.0078 31.7402 31.4219C32.1855 30.8359 32.793 30.543 33.5625 30.543C34.1797 30.543 34.6895 30.7734 35.0918 31.2344V28H36.791V37H35.2617L35.1797 36.3262C34.7578 36.8535 34.2148 37.1172 33.5508 37.1172C32.8047 37.1172 32.2051 36.8242 31.752 36.2383C31.3027 35.6484 31.0781 34.8301 31.0781 33.7832ZM32.7715 33.9062C32.7715 34.5 32.875 34.9551 33.082 35.2715C33.2891 35.5879 33.5898 35.7461 33.9844 35.7461C34.5078 35.7461 34.877 35.5254 35.0918 35.084V32.582C34.8809 32.1406 34.5156 31.9199 33.9961 31.9199C33.1797 31.9199 32.7715 32.582 32.7715 33.9062ZM41.0215 37.1172C40.0918 37.1172 39.334 36.832 38.748 36.2617C38.166 35.6914 37.875 34.9316 37.875 33.9824V33.8184C37.875 33.1816 37.998 32.6133 38.2441 32.1133C38.4902 31.6094 38.8379 31.2227 39.2871 30.9531C39.7402 30.6797 40.2559 30.543 40.834 30.543C41.7012 30.543 42.3828 30.8164 42.8789 31.3633C43.3789 31.9102 43.6289 32.6855 43.6289 33.6895V34.3809H39.5918C39.6465 34.7949 39.8105 35.127 40.084 35.377C40.3613 35.627 40.7109 35.752 41.1328 35.752C41.7852 35.752 42.2949 35.5156 42.6621 35.043L43.4941 35.9746C43.2402 36.334 42.8965 36.6152 42.4629 36.8184C42.0293 37.0176 41.5488 37.1172 41.0215 37.1172ZM40.8281 31.9141C40.4922 31.9141 40.2188 32.0273 40.0078 32.2539C39.8008 32.4805 39.668 32.8047 39.6094 33.2266H41.9648V33.0918C41.957 32.7168 41.8555 32.4277 41.6602 32.2246C41.4648 32.0176 41.1875 31.9141 40.8281 31.9141ZM48.1582 32.248C47.9277 32.2168 47.7246 32.2012 47.5488 32.2012C46.9082 32.2012 46.4883 32.418 46.2891 32.8516V37H44.5957V30.6602H46.1953L46.2422 31.416C46.582 30.834 47.0527 30.543 47.6543 30.543C47.8418 30.543 48.0176 30.5684 48.1816 30.6191L48.1582 32.248Z" fill="black"/>
</svg>
