<svg width="40" height="40" viewBox="0 0 40 40" fill="none" xmlns="http://www.w3.org/2000/svg">
<path d="M31.6667 36.6666H8.33333C6.49238 36.6666 5 35.1742 5 33.3333V9.99992C5 8.15897 6.49238 6.66659 8.33333 6.66659H11.6667V3.33325H15V6.66659H25V3.33325H28.3333V6.66659H31.6667C33.5076 6.66659 35 8.15897 35 9.99992V33.3333C35 35.1742 33.5076 36.6666 31.6667 36.6666ZM8.33333 16.6666V33.3333H31.6667V16.6666H8.33333ZM8.33333 9.99992V13.3333H31.6667V9.99992H8.33333ZM28.3333 29.9999H25V26.6666H28.3333V29.9999ZM21.6667 29.9999H18.3333V26.6666H21.6667V29.9999ZM15 29.9999H11.6667V26.6666H15V29.9999ZM28.3333 23.3333H25V19.9999H28.3333V23.3333ZM21.6667 23.3333H18.3333V19.9999H21.6667V23.3333ZM15 23.3333H11.6667V19.9999H15V23.3333Z" fill="#747474"/>
</svg>
