<svg width="40" height="40" viewBox="0 0 40 40" fill="none" xmlns="http://www.w3.org/2000/svg">
<path d="M20 36.6666C10.7995 36.6565 3.34348 29.2005 3.33337 19.9999V19.6666C3.51659 10.5075 11.0577 3.21321 20.2178 3.33475C29.378 3.45629 36.7229 10.9481 36.663 20.1088C36.6032 29.2696 29.161 36.6648 20 36.6666ZM19.9734 33.3333H20C27.3612 33.3259 33.3237 27.3545 33.32 19.9933C33.3164 12.6321 27.3479 6.66662 19.9867 6.66662C12.6255 6.66662 6.65706 12.6321 6.65337 19.9933C6.6497 27.3545 12.6122 33.3259 19.9734 33.3333ZM21.6667 29.9999H18.3334V26.6666H21.6667V29.9999ZM21.6667 24.9999H18.3334C18.2807 22.8294 19.4103 20.8013 21.2834 19.7033C22.3834 18.8599 23.3334 18.1333 23.3334 16.6666C23.3334 14.8257 21.841 13.3333 20 13.3333C18.1591 13.3333 16.6667 14.8257 16.6667 16.6666H13.3334V16.5166C13.3602 14.1348 14.6556 11.9483 16.7317 10.7806C18.8077 9.61293 21.3491 9.64152 23.3983 10.8556C25.4476 12.0697 26.6935 14.2848 26.6667 16.6666C26.5474 18.465 25.5828 20.1004 24.0667 21.0749C22.6962 21.9353 21.8079 23.388 21.6667 24.9999Z" fill="#747474"/>
</svg>
