<svg id="b804828c-2ff8-473d-a4b9-ebc49755922d" data-name="圖層 1" xmlns="http://www.w3.org/2000/svg" xmlns:xlink="http://www.w3.org/1999/xlink" viewBox="0 0 144 174.11"><defs><style>.b00b7c6e-98db-4b63-81b5-fc9fa0512c63,.e01cadc6-cdcd-4762-b9f3-df81303bf1f8{fill:none;}.a9866bda-ed28-4329-a5ed-5c5c153a80e7{clip-path:url(#bf072574-d718-4dd1-b66c-1b7d73302ab2);}.e3302ba8-60de-4612-970d-f51cf597ecd3{fill:#17acff;}.b518445d-9fe7-4425-90ad-81a128b339ba,.baed2243-d846-484d-a79f-b8710d078724{fill:#fff;}.a9d3e4e6-955a-452f-a766-99496ed3eaae{fill:#005fe8;}.b518445d-9fe7-4425-90ad-81a128b339ba,.e01cadc6-cdcd-4762-b9f3-df81303bf1f8{stroke:#fff;}.e01cadc6-cdcd-4762-b9f3-df81303bf1f8{stroke-linecap:round;stroke-linejoin:round;}.a676f5e2-b166-4e25-a908-6e6448643ad1{opacity:0.3;}.b518445d-9fe7-4425-90ad-81a128b339ba{stroke-miterlimit:10;}</style><clipPath id="bf072574-d718-4dd1-b66c-1b7d73302ab2" transform="translate(-38.99 -29.9)"><circle class="b00b7c6e-98db-4b63-81b5-fc9fa0512c63" cx="89" cy="89" r="89"/></clipPath></defs><g class="a9866bda-ed28-4329-a5ed-5c5c153a80e7"><path class="e3302ba8-60de-4612-970d-f51cf597ecd3" d="M161,170.33a65,65,0,1,1,6.76-44.2A65.13,65.13,0,0,1,161,170.33Z" transform="translate(-38.99 -29.9)"/><circle class="baed2243-d846-484d-a79f-b8710d078724" cx="38.67" cy="100" r="2.83"/><circle class="baed2243-d846-484d-a79f-b8710d078724" cx="85.76" cy="90.49" r="2.83"/><path class="e3302ba8-60de-4612-970d-f51cf597ecd3" d="M179,146c-9.4,37.61-14,39.65-16.13,34.94C161.34,177.63,161,171,161,171a427.92,427.92,0,0,0-9.16-64.75c-2.17-9.53-4.52-19.12-9.88-27.43-6.63-10.28-18.66-20.26-17.29-33.65A16.6,16.6,0,0,1,140,30c14.12-1.48,23.48,14.62,28.86,25.28a130.27,130.27,0,0,1,14,53.64A132.73,132.73,0,0,1,179,146Z" transform="translate(-38.99 -29.9)"/><path class="a9d3e4e6-955a-452f-a766-99496ed3eaae" d="M162.87,180.94c-5.52,12.79-7.68,4.71-8.47-.89-.31-2.22-.4-4.05-.4-4.05a427.92,427.92,0,0,0-9.16-64.75c-2.17-9.53-4.52-19.12-9.88-27.43-.66-1-1.38-2.06-2.14-3.08a64.84,64.84,0,0,1,14.86,10.12,141.35,141.35,0,0,1,4.16,15.39A426.78,426.78,0,0,1,161,170.33c0,.22,0,.45.05.67C161,171,161.34,177.63,162.87,180.94Z" transform="translate(-38.99 -29.9)"/><path class="e01cadc6-cdcd-4762-b9f3-df81303bf1f8" d="M139.5,62.5s-5-9.2,0-10.6,7.25,5.3,7.25,5.3" transform="translate(-38.99 -29.9)"/><g class="a676f5e2-b166-4e25-a908-6e6448643ad1"><circle class="a9d3e4e6-955a-452f-a766-99496ed3eaae" cx="35.01" cy="113.1" r="9"/><circle class="a9d3e4e6-955a-452f-a766-99496ed3eaae" cx="96.01" cy="101.1" r="9"/></g><path class="b518445d-9fe7-4425-90ad-81a128b339ba" d="M122.84,137.84c-11.93,10.45-30.34,7.66-36.75,6.26a.48.48,0,0,1,0-.95L122.3,137C122.86,136.92,123.23,137.49,122.84,137.84Z" transform="translate(-38.99 -29.9)"/></g></svg>