<svg width="35" height="35" viewBox="0 0 35 35" fill="none" xmlns="http://www.w3.org/2000/svg">
<path d="M17.5 32.0834C15.8901 32.0755 14.5847 30.7766 14.5688 29.1667H20.4021C20.4052 29.5566 20.3309 29.9432 20.1834 30.3042C19.8008 31.1821 19.0193 31.8224 18.0834 32.025H18.0761H18.0542H18.028H18.0148C17.8454 32.0603 17.6731 32.0798 17.5 32.0834ZM29.1667 27.7084H5.83337V24.7917L8.75004 23.3334V15.3125C8.67321 13.255 9.13786 11.2133 10.0975 9.39169C11.0528 7.70223 12.6856 6.50255 14.5834 6.09585V2.91669H20.4167V6.09585C24.1777 6.99127 26.25 10.2638 26.25 15.3125V23.3334L29.1667 24.7917V27.7084Z" fill="white"/>
</svg>
