<svg width="35" height="35" viewBox="0 0 35 35" fill="none" xmlns="http://www.w3.org/2000/svg">
<path d="M20.1541 32.0834H14.8457C14.1605 32.0834 13.5676 31.6065 13.4209 30.9372L12.8274 28.1897C12.0356 27.8428 11.2848 27.4089 10.5889 26.8961L7.9099 27.7493C7.25657 27.9576 6.54634 27.6826 6.20365 27.0886L3.54365 22.4934C3.20472 21.8992 3.32149 21.1495 3.82511 20.6865L5.90323 18.7907C5.80873 17.9319 5.80873 17.0653 5.90323 16.2065L3.82511 14.3151C3.32074 13.8519 3.20393 13.1013 3.54365 12.5067L6.19782 7.90862C6.54051 7.31464 7.25074 7.03966 7.90407 7.248L10.583 8.10112C10.939 7.83739 11.3095 7.59395 11.6928 7.37196C12.0608 7.16443 12.4395 6.97652 12.8274 6.80904L13.4224 4.06446C13.5683 3.39504 14.1606 2.91747 14.8457 2.91675H20.1541C20.8392 2.91747 21.4315 3.39504 21.5774 4.06446L22.1782 6.8105C22.5877 6.99063 22.9865 7.19416 23.3726 7.42008C23.7332 7.6283 24.0818 7.85665 24.4168 8.10404L27.0972 7.25092C27.7501 7.04335 28.4594 7.31823 28.802 7.91154L31.4562 12.5097C31.7951 13.1039 31.6783 13.8535 31.1747 14.3165L29.0966 16.2124C29.1911 17.0712 29.1911 17.9377 29.0966 18.7965L31.1747 20.6924C31.6783 21.1554 31.7951 21.905 31.4562 22.4993L28.802 27.0974C28.4594 27.6907 27.7501 27.9656 27.0972 27.758L24.4168 26.9049C24.0776 27.1547 23.7251 27.3859 23.3609 27.5976C22.9786 27.8191 22.5842 28.0192 22.1797 28.197L21.5774 30.9372C21.4309 31.606 20.8388 32.0828 20.1541 32.0834ZM17.4941 11.6667C14.2724 11.6667 11.6607 14.2784 11.6607 17.5001C11.6607 20.7217 14.2724 23.3334 17.4941 23.3334C20.7157 23.3334 23.3274 20.7217 23.3274 17.5001C23.3274 14.2784 20.7157 11.6667 17.4941 11.6667Z" fill="white"/>
</svg>
