<svg width="40" height="40" viewBox="0 0 40 40" fill="none" xmlns="http://www.w3.org/2000/svg">
<path d="M20 36.2922C11.0021 36.2922 3.70789 28.9979 3.70789 20C3.70789 11.0021 11.0021 3.70789 20 3.70789C28.9979 3.70789 36.2922 11.0021 36.2922 20C36.2823 28.9938 28.9938 36.2823 20 36.2922ZM20 6.96631C12.8017 6.96631 6.96631 12.8017 6.96631 20C6.96631 27.1983 12.8017 33.0337 20 33.0337C27.1983 33.0337 33.0337 27.1983 33.0337 20C33.0257 12.8051 27.195 6.97439 20 6.96631ZM20 29.7753C17.4259 29.8189 14.9928 28.6023 13.4832 26.5169C12.7501 25.5366 12.1984 24.4331 11.854 23.2584H28.1461C28.1461 23.2584 28.1461 23.2584 28.1461 23.2715C27.7963 24.44 27.245 25.5383 26.5169 26.5169C25.0071 28.6021 22.5741 29.8186 20 29.7753ZM14.2978 20C12.9481 20 11.854 18.9059 11.854 17.5562C11.854 16.2065 12.9481 15.1124 14.2978 15.1124C15.6475 15.1124 16.7416 16.2065 16.7416 17.5562C16.7416 18.9059 15.6475 20 14.2978 20ZM25.6909 19.9772C24.3475 19.9772 23.2584 18.8882 23.2584 17.5448C23.2584 16.2014 24.3475 15.1124 25.6909 15.1124C27.0343 15.1124 28.1233 16.2014 28.1233 17.5448C28.1215 18.8874 27.0335 19.9754 25.6909 19.9772Z" fill="#2E3A59"/>
</svg>
