<svg width="116" height="116" viewBox="0 0 116 116" fill="none" xmlns="http://www.w3.org/2000/svg">
<path d="M58.0001 106.333C31.3063 106.333 9.66675 84.6937 9.66675 58C9.66675 31.3062 31.3063 9.66663 58.0001 9.66663C84.6938 9.66663 106.333 31.3062 106.333 58C106.304 84.6816 84.6817 106.304 58.0001 106.333ZM58.0001 19.3333C36.6451 19.3333 19.3334 36.6449 19.3334 58C19.3334 79.355 36.6451 96.6666 58.0001 96.6666C79.3551 96.6666 96.6667 79.355 96.6667 58C96.6428 36.6549 79.3452 19.3573 58.0001 19.3333ZM58.0001 87C50.3635 87.1292 43.1453 83.5201 38.6667 77.3333C36.4921 74.4251 34.8552 71.1513 33.8334 67.6666H82.1667C82.1667 67.6666 82.1667 67.6666 82.1667 67.7053C81.1292 71.1718 79.4934 74.4302 77.3334 77.3333C72.8543 83.5194 65.6365 87.1284 58.0001 87ZM41.0834 58C37.0794 58 33.8334 54.754 33.8334 50.75C33.8334 46.7459 37.0794 43.5 41.0834 43.5C45.0875 43.5 48.3334 46.7459 48.3334 50.75C48.3334 54.754 45.0875 58 41.0834 58ZM74.8829 57.9323C70.8975 57.9323 67.6667 54.7015 67.6667 50.7161C67.6667 46.7307 70.8975 43.5 74.8829 43.5C78.8683 43.5 82.0991 46.7307 82.0991 50.7161C82.0938 54.6993 78.8661 57.927 74.8829 57.9323Z" fill="#747474"/>
</svg>
