<svg width="40" height="40" viewBox="0 0 40 40" fill="none" xmlns="http://www.w3.org/2000/svg">
<path d="M20 36.6666C10.7953 36.6666 3.33337 29.2047 3.33337 19.9999C3.33337 10.7952 10.7953 3.33325 20 3.33325C29.2048 3.33325 36.6667 10.7952 36.6667 19.9999C36.6566 29.2005 29.2006 36.6565 20 36.6666ZM19.9734 33.3333H20C27.3612 33.3259 33.3237 27.3545 33.32 19.9933C33.3164 12.6321 27.3479 6.66659 19.9867 6.66659C12.6255 6.66659 6.65706 12.6321 6.65337 19.9933C6.6497 27.3545 12.6122 33.3259 19.9734 33.3333ZM16.6667 28.3333L10 21.6666L12.35 19.3166L16.6667 23.6166L27.65 12.6333L30 14.9999L16.6667 28.3333Z" fill="#747474"/>
</svg>
