<svg width="40" height="40" viewBox="0 0 40 40" fill="none" xmlns="http://www.w3.org/2000/svg">
<path d="M23.0334 36.6666H16.9667C16.1836 36.6666 15.506 36.1216 15.3384 35.3566L14.66 32.2166C13.7551 31.8201 12.8971 31.3243 12.1017 30.7383L9.04003 31.7133C8.29336 31.9514 7.48167 31.6371 7.09003 30.9583L4.05003 25.7066C3.66267 25.0274 3.79612 24.1707 4.37169 23.6416L6.74669 21.4749C6.63869 20.4934 6.63869 19.5031 6.74669 18.5216L4.37169 16.3599C3.79528 15.8305 3.66177 14.9728 4.05003 14.2933L7.08336 9.03825C7.475 8.35942 8.28669 8.04515 9.03336 8.28325L12.095 9.25825C12.5018 8.95685 12.9252 8.67863 13.3634 8.42492C13.7839 8.18774 14.2168 7.973 14.66 7.78159L15.34 4.64492C15.5068 3.87987 16.1837 3.33408 16.9667 3.33325H23.0334C23.8164 3.33408 24.4932 3.87987 24.66 4.64492L25.3467 7.78325C25.8147 7.98911 26.2704 8.22172 26.7117 8.47992C27.1232 8.71794 27.5211 8.97891 27.9034 9.26159L30.9667 8.28659C31.7129 8.04937 32.5235 8.36352 32.915 9.04159L35.9484 14.2966C36.3357 14.9757 36.2023 15.8324 35.6267 16.3616L33.2517 18.5283C33.3597 19.5097 33.3597 20.5001 33.2517 21.4816L35.6267 23.6483C36.2023 24.1774 36.3357 25.0341 35.9484 25.7133L32.915 30.9683C32.5235 31.6463 31.7129 31.9605 30.9667 31.7233L27.9034 30.7483C27.5157 31.0337 27.1129 31.298 26.6967 31.5399C26.2597 31.7931 25.809 32.0218 25.3467 32.2249L24.66 35.3566C24.4926 36.121 23.8159 36.6659 23.0334 36.6666ZM12.7 27.0483L14.0667 28.0483C14.3748 28.2752 14.6959 28.4839 15.0284 28.6733C15.3412 28.8544 15.6633 29.0191 15.9934 29.1666L17.5484 29.8483L18.31 33.3333H21.6934L22.455 29.8466L24.01 29.1649C24.6889 28.8656 25.3332 28.4934 25.9317 28.0549L27.3 27.0549L30.7017 28.1383L32.3934 25.2083L29.755 22.8033L29.9417 21.1166C30.0237 20.3789 30.0237 19.6343 29.9417 18.8966L29.755 17.2099L32.395 14.7999L30.7017 11.8683L27.3 12.9516L25.9317 11.9516C25.333 11.5111 24.6888 11.1362 24.01 10.8333L22.455 10.1516L21.6934 6.66659H18.31L17.545 10.1533L15.9934 10.8333C15.663 10.9783 15.3409 11.1413 15.0284 11.3216C14.6979 11.5105 14.3785 11.718 14.0717 11.9433L12.7034 12.9433L9.30336 11.8599L7.60836 14.7999L10.2467 17.2016L10.06 18.8899C9.97803 19.6276 9.97803 20.3722 10.06 21.1099L10.2467 22.7966L7.60836 25.2016L9.30003 28.1316L12.7 27.0483ZM19.9934 26.6666C16.3115 26.6666 13.3267 23.6818 13.3267 19.9999C13.3267 16.318 16.3115 13.3333 19.9934 13.3333C23.6753 13.3333 26.66 16.318 26.66 19.9999C26.6554 23.6799 23.6734 26.662 19.9934 26.6666ZM19.9934 16.6666C18.1724 16.6684 16.6898 18.1313 16.6637 19.9522C16.6377 21.773 18.0776 23.2778 19.8978 23.3318C21.718 23.3858 23.2447 21.9691 23.3267 20.1499V20.8166V19.9999C23.3267 18.159 21.8343 16.6666 19.9934 16.6666Z" fill="#747474"/>
</svg>
